<svg width="16" height="16" viewBox="0 0 16 16" fill="none" xmlns="http://www.w3.org/2000/svg">
<g id="&#230;&#179;&#149;&#229;&#190;&#139;&#229;&#163;&#176;&#230;&#152;&#142;">
<path id="Vector" d="M13.4162 1.98212L13.4163 1.98215L13.417 1.98241C13.8871 2.14165 14.25 2.62719 14.25 3.24544V9.31231C14.25 10.189 13.9407 11.0526 13.2784 11.8932L13.2784 11.8933C12.7714 12.5368 12.0563 13.1648 11.1304 13.7532L11.1301 13.7535C9.79298 14.6043 8.46189 15.0898 8.09141 15.2177L8.05405 15.2306L8.01825 15.2473C8.01698 15.2479 8.01553 15.2485 8.01403 15.2489C8.01333 15.2491 8.01261 15.2493 8.0119 15.2495C8.00975 15.25 8.00849 15.25 8.00829 15.25C8.00619 15.25 8.00448 15.25 8.00311 15.25C8.00157 15.2496 7.99959 15.2491 7.99711 15.2484C7.98218 15.2443 7.95693 15.2365 7.91094 15.2205C7.865 15.2046 7.80887 15.1842 7.73174 15.156C7.50397 15.0726 7.26583 14.979 7.0227 14.8753L7.02112 14.8747C6.48331 14.6468 5.67446 14.2662 4.86971 13.7551C3.94577 13.1667 3.22852 12.5368 2.72127 11.8946C2.05927 11.0542 1.75 10.189 1.75 9.3141V3.24544C1.75 2.62719 2.11288 2.14165 2.58298 1.98241L2.58374 1.98215L7.99067 0.750961L7.99067 0.750977L7.99483 0.75H7.99973C8.00396 0.750255 8.00667 0.750517 8.00807 0.750673L8.00933 0.750961L13.4162 1.98212Z" stroke="black" stroke-width="1.5" stroke-linecap="round"/>
<path id="Vector 4505" d="M10.5205 6.32056L7.7384 9.36893C7.66464 9.44974 7.53965 9.45629 7.45785 9.38363L5.47916 7.62607" stroke="#989898" stroke-width="1.5" stroke-linecap="round"/>
</g>
</svg>
