<svg width="20" height="20" viewBox="0 0 20 20" fill="none" xmlns="http://www.w3.org/2000/svg">
<g id="dianhua 1">
<path id="Vector" d="M14.1733 17.6327C13.4182 17.6327 12.5713 17.4898 11.6835 17.2143C9.55087 16.551 7.44883 15.1633 5.76516 13.3061C3.24475 10.5204 2.04067 7.7449 2.27536 5.27551C2.34679 4.66327 2.54067 3.88776 3.45903 3.26531C4.16312 2.69388 4.96924 2.36735 5.60189 2.37755C6.26516 2.38776 6.48965 2.62245 7.17332 3.61225C8.22434 5.06123 8.29577 5.77551 8.25495 6.18367C8.18352 6.85714 7.81618 7.15306 7.47944 7.41837C7.39781 7.47959 7.31618 7.55102 7.24475 7.61225C6.83659 8.13265 6.33659 8.85714 8.47944 11.0714C10.306 12.8265 11.2958 13.0408 11.7141 13.0102C12.0407 12.9898 12.1631 12.8163 12.2141 12.7551L12.2243 12.7449C12.908 11.7857 13.1325 11.551 13.7856 11.449C14.4182 11.3469 14.7447 11.551 16.0917 12.398C17.306 13.1633 17.8672 13.6735 17.7447 14.4796C17.7039 15.3571 17.0305 16.551 16.2754 17.0918C15.755 17.449 15.0305 17.6327 14.1733 17.6327Z" fill="#16C4AF"/>
</g>
</svg>
